<?xml version="1.0" standalone="no"?>
<!DOCTYPE svg PUBLIC "-//W3C//DTD SVG 20010904//EN"
 "http://www.w3.org/TR/2001/REC-SVG-20010904/DTD/svg10.dtd">
<svg version="1.0" xmlns="http://www.w3.org/2000/svg"
 width="64.000000pt" height="64.000000pt" viewBox="0 0 64.000000 64.000000"
 preserveAspectRatio="xMidYMid meet">
<metadata>
Created by potrace 1.14, written by Peter Selinger 2001-2017
</metadata>
<g transform="translate(0.000000,64.000000) scale(0.100000,-0.100000)"
fill="#000000" stroke="none">
<path d="M375 393 c-32 -54 -66 -113 -77 -130 l-20 -33 86 0 c85 0 86 0 86 25
0 23 -4 25 -35 23 -19 -1 -36 0 -39 2 -2 3 11 50 30 105 18 54 32 101 30 102
-2 2 -29 -40 -61 -94z"/>
<path d="M175 402 c-3 -3 -5 -14 -5 -24 0 -18 13 -22 58 -18 12 1 22 -3 22 -7
0 -9 -49 -155 -66 -198 -7 -18 -6 -18 9 -6 9 7 17 17 17 21 0 4 29 56 65 116
36 60 65 112 65 116 0 8 -157 8 -165 0z"/>
</g>
</svg>
